<?xml version="1.0" encoding="UTF-8" standalone="no"?>
<!-- Created with Inkscape (http://www.inkscape.org/) -->

<svg
   width="60mm"
   height="50mm"
   viewBox="0 0 60 50"
   version="1.1"
   id="svg1"
   inkscape:version="1.3.2 (091e20ef0f, 2023-11-25)"
   sodipodi:docname="phone.svg"
   inkscape:export-filename="phone.png"
   inkscape:export-xdpi="48"
   inkscape:export-ydpi="48"
   xmlns:inkscape="http://www.inkscape.org/namespaces/inkscape"
   xmlns:sodipodi="http://sodipodi.sourceforge.net/DTD/sodipodi-0.dtd"
   xmlns="http://www.w3.org/2000/svg"
   xmlns:svg="http://www.w3.org/2000/svg">
  <sodipodi:namedview
     id="namedview1"
     pagecolor="#ffffff"
     bordercolor="#666666"
     borderopacity="1.0"
     inkscape:showpageshadow="2"
     inkscape:pageopacity="0.0"
     inkscape:pagecheckerboard="0"
     inkscape:deskcolor="#d1d1d1"
     inkscape:document-units="mm"
     inkscape:zoom="5.3763333"
     inkscape:cx="113.46023"
     inkscape:cy="92.814186"
     inkscape:window-width="1920"
     inkscape:window-height="1216"
     inkscape:window-x="0"
     inkscape:window-y="0"
     inkscape:window-maximized="1"
     inkscape:current-layer="layer1" />
  <defs
     id="defs1" />
  <g
     inkscape:label="Réteg 1"
     inkscape:groupmode="layer"
     id="layer1"
     transform="translate(-80.386644,-104.33819)">
    <path
       id="path7"
       style="opacity:1;fill:#000000;stroke-width:1.04827;stroke-linecap:round;stroke-linejoin:round"
       d="m 104.64542,110.96553 c -3.81501,0.40323 -7.793578,0.73867 -11.198688,2.67228 -2.36396,1.18537 -4.79411,2.76242 -5.84904,5.30158 -0.94982,2.27707 -0.94678,5.0827 0.46311,7.171 1.25031,1.54228 3.67359,1.79914 5.29481,0.70176 1.27313,-0.68874 2.9399,-1.38487 2.85905,-3.24395 -0.0763,-1.75417 -0.4002,-2.80208 0.41795,-4.07728 1.00792,-1.51119 2.7536,-1.83757 4.377938,-2.23231 5.04905,-1.12531 10.29749,-1.1598 15.40585,-0.5981 2.10199,0.23113 4.61471,0.73922 6.13428,1.61766 1.10025,0.63604 1.80303,1.26476 1.86557,2.75929 0.0758,1.81098 -0.48791,2.91962 0.25391,4.05118 0.7054,1.07598 2.07633,1.42059 3.43633,1.75773 1.69868,0.33008 3.76899,0.0697 4.88344,-1.39093 1.14087,-1.64557 0.98733,-3.84337 0.37558,-5.66017 -0.73144,-2.02779 -2.348,-3.64691 -4.25663,-4.60203 -4.51207,-2.71306 -9.72318,-4.10299 -14.9507,-4.47271 -3.16663,-0.2744 -6.36523,-0.19071 -9.51276,0.245 z m 12.57826,9.65497 c -1.35188,0.58676 -1.25676,3.13455 -2.60059,3.08425 -1.27923,-0.0479 -1.86614,-0.57551 -4.29609,-0.6162 -2.36085,-0.0395 -3.8328,0.6942 -4.46504,0.61167 -0.9767,-0.1275 -0.98075,-0.76056 -1.63264,-2.13401 -0.41499,-0.87433 -1.77615,-1.28585 -2.70638,-1.05141 -1.06161,0.18282 -2.335099,0.89455 -2.179266,2.3474 0.103446,0.96444 1.175786,1.74181 0.726916,2.81765 -1.066538,2.78889 -3.097911,4.87769 -4.493242,7.40549 -1.346441,2.43923 -2.383558,4.18704 -3.736053,7.47708 -0.754289,1.83486 -1.68457,4.52727 -1.236955,6.32397 0.23268,0.93396 1.589472,1.29904 2.455012,1.25061 5.57973,-0.003 11.149928,-0.0162 16.740238,0.005 5.88205,-0.0196 11.81121,0.0161 17.73724,-0.0121 1.15822,-0.35263 1.73525,-0.64531 1.58639,-2.84544 -0.21707,-3.20817 -1.26311,-5.04152 -2.19629,-7.45987 -1.18022,-3.05856 -2.6661,-6.00374 -4.27983,-8.85507 -0.88266,-1.38172 -2.32273,-2.76265 -2.18624,-4.48972 0.19534,-0.96949 0.92317,-2.29024 0.068,-3.0649 -0.83767,-0.86254 -2.17236,-1.07339 -3.30514,-0.79398 z m -6.18292,6.86052 c 3.4399,0.22602 6.64703,2.52422 7.62594,5.50195 0.95936,2.91826 -0.41674,6.85691 -2.81636,8.77484 -2.54029,2.03037 -7.32528,2.2771 -9.71792,0.86093 -2.55255,-1.51081 -4.29066,-3.77254 -4.13602,-7.07287 0.0538,-2.70728 1.52984,-4.99247 3.40076,-6.31523 1.68612,-1.19213 3.66742,-1.87947 5.6436,-1.74962 z m -0.55534,4.12611 c -2.50732,-0.0996 -4.61849,2.25675 -4.20616,4.66212 0.353,2.05927 2.87321,3.38065 5.24939,2.84175 2.38558,-0.54103 3.26821,-2.66758 2.93369,-4.5194 -0.37552,-1.83377 -1.8494,-2.89997 -3.97692,-2.98447 z"
       sodipodi:nodetypes="cccccsccassaccccccssssscscasscccsaccccssaascsssssss"
       inkscape:export-filename="./path7.png"
       inkscape:export-xdpi="48"
       inkscape:export-ydpi="48" />
  </g>
</svg>
